{"title":"Little League World Series","uid":6643965,"size":2379377692,"categoryP":"video","categoryS":"tv_shows","magnet":"?xt=urn:btih:8369847e49607d55a9518d210160c2aa693943b4&amp;dn=Little+League+World+Series&amp;tr=udp%3A%2F%2Ftracker.openbittorrent.com%3A80&amp;tr=udp%3A%2F%2Fopen.demonii.com%3A1337&amp;tr=udp%3A%2F%2Ftracker.coppersurfer.tk%3A6969&amp;tr=udp%3A%2F%2Fexodus.desync.com%3A6969","seeders":0,"leechers":1,"uploader":"osa1011","files":6,"time":1314871745,"description":"Here's the Little League World Series. There's some screens in the torrent if you want to check it out. Here's the video info.\n\n\nGeneral\nComplete name                    : C:\\Users\\****\\Desktop\\Little League World Series\\2011 Little League World Series.avi\nFormat                           : AVI\nFormat/Info                      : Audio Video Interleave\nFormat profile                   : OpenDML\nFile size                        : 2.22 GiB\nDuration                         : 1h 57mn\nOverall bit rate                 : 2 702 Kbps\nWriting application              : VirtualDubMod 1.5.10.2 (build 2540/release)\nWriting library                  : VirtualDubMod build 2540/release\n\nVideo\nID                               : 0\nFormat                           : MPEG-4 Visual\nFormat profile                   : Advanced Simple@L5\nFormat settings, BVOP            : 2\nFormat settings, QPel            : No\nFormat settings, GMC             : No warppoints\nFormat settings, Matrix          : Default (H.263)\nMuxing mode                      : Packed bitstream\nCodec ID                         : XVID\nCodec ID/Hint                    : XviD\nDuration                         : 1h 57mn\nBit rate                         : 2 540 Kbps\nWidth                            : 720 pixels\nHeight                           : 400 pixels\nDisplay aspect ratio             : 16:9\nFrame rate                       : 29.970 fps\nColor space                      : YUV\nChroma subsampling               : 4:2:0\nBit depth                        : 8 bits\nScan type                        : Progressive\nCompression mode                 : Lossy\nBits/(Pixel*Frame)               : 0.294\nStream size                      : 2.08 GiB (94%)\nWriting library                  : XviD 1.2.1 (UTC 2008-12-04)\n\nAudio\nID                               : 1\nFormat                           : MPEG Audio\nFormat version                   : Version 1\nFormat profile                   : Layer 3\nMode                             : Joint stereo\nMode extension                   : MS Stereo\nCodec ID                         : 55\nCodec ID/Hint                    : MP3\nDuration                         : 1h 57mn\nBit rate mode                    : Variable\nBit rate                         : 145 Kbps\nMinimum bit rate                 : 32.0 Kbps\nChannel(s)                       : 2 channels\nSampling rate                    : 48.0 KHz\nCompression mode                 : Lossy\nStream size                      : 122 MiB (5%)\nAlignment                        : Aligned on interleaves\nInterleave, duration             : 24 ms (0.72 video frame)\nInterleave, preload duration     : 527 ms\nWriting library                  : LAME3.98r\nEncoding settings                : -m j -V 5 -q 2 -lowpass 16.5 --vbr-new -b 32\n\n","torrent":{"xt":"urn:btih:8369847e49607d55a9518d210160c2aa693943b4","amp;dn":"Little+League+World+Series","amp;tr":["udp%3A%2F%2Ftracker.openbittorrent.com%3A80","udp%3A%2F%2Fopen.demonii.com%3A1337","udp%3A%2F%2Ftracker.coppersurfer.tk%3A6969","udp%3A%2F%2Fexodus.desync.com%3A6969"],"infoHash":"8369847e49607d55a9518d210160c2aa693943b4","infoHashBuffer":{"type":"Buffer","data":[131,105,132,126,73,96,125,85,169,81,141,33,1,96,194,170,105,57,67,180]},"announce":[],"urlList":[]}}